<?xml version="1.0" standalone="no"?><!DOCTYPE svg PUBLIC "-//W3C//DTD SVG 1.1//EN" "http://www.w3.org/Graphics/SVG/1.1/DTD/svg11.dtd"><svg t="1533818232761" class="icon" style="" viewBox="0 0 1024 1024" version="1.1" xmlns="http://www.w3.org/2000/svg" p-id="10475" xmlns:xlink="http://www.w3.org/1999/xlink" width="200" height="200"><defs><style type="text/css"></style></defs><path d="M761.344 119.296H226.816c-18.944 0-39.424 11.776-39.424 30.72V921.6h614.4V148.48c0.512-18.944-22.016-29.184-40.448-29.184z m-537.6 768c-2.048 0-2.048 0 0 0L221.696 163.84c0-5.12 5.12-10.24 10.24-10.24h522.24c8.704 0 13.824 5.12 13.824 13.824v720.384s0 1.536-1.536 1.536h-15.36V194.56c0-16.896-8.704-24.064-29.184-24.064H266.24c-18.944 0-27.136 8.704-27.136 24.064v692.736h-15.36z m49.152 0V204.8H716.8v682.496H272.896z" p-id="10476" fill="#8a8a8a"></path><path d="M648.704 508.416c-16.896 0-32.256 13.824-32.256 32.256 0 16.896 13.824 32.256 32.256 32.256s32.256-13.824 32.256-32.256c0-16.896-13.824-32.256-32.256-32.256z" p-id="10477" fill="#8a8a8a"></path></svg>